solid OpenSCAD_Model
  facet normal 0 0 1
    outer loop
      vertex 2.70598 2.70598 9.2388
      vertex 2.70598 -2.70598 9.2388
      vertex 3.82683 0 9.2388
    endloop
  endfacet
  facet normal 0 0 1
    outer loop
      vertex 2.34318e-016 3.82683 9.2388
      vertex 2.70598 -2.70598 9.2388
      vertex 2.70598 2.70598 9.2388
    endloop
  endfacet
  facet normal 0 0 1
    outer loop
      vertex 2.34318e-016 3.82683 9.2388
      vertex -7.02955e-016 -3.82683 9.2388
      vertex 2.70598 -2.70598 9.2388
    endloop
  endfacet
  facet normal -0 0 1
    outer loop
      vertex -2.70598 2.70598 9.2388
      vertex -7.02955e-016 -3.82683 9.2388
      vertex 2.34318e-016 3.82683 9.2388
    endloop
  endfacet
  facet normal 0 0 1
    outer loop
      vertex -2.70598 2.70598 9.2388
      vertex -2.70598 -2.70598 9.2388
      vertex -7.02955e-016 -3.82683 9.2388
    endloop
  endfacet
  facet normal 0 -0 1
    outer loop
      vertex -2.70598 -2.70598 9.2388
      vertex -2.70598 2.70598 9.2388
      vertex -3.82683 4.68637e-016 9.2388
    endloop
  endfacet
  facet normal 0.678598 0.281085 0.678598
    outer loop
      vertex 9.2388 0 3.82683
      vertex 6.53281 6.53281 3.82683
      vertex 3.82683 0 9.2388
    endloop
  endfacet
  facet normal 0.678598 0.281085 0.678598
    outer loop
      vertex 6.53281 6.53281 3.82683
      vertex 2.70598 2.70598 9.2388
      vertex 3.82683 0 9.2388
    endloop
  endfacet
  facet normal 0.281085 0.678598 0.678598
    outer loop
      vertex 6.53281 6.53281 3.82683
      vertex 5.65694e-016 9.2388 3.82683
      vertex 2.70598 2.70598 9.2388
    endloop
  endfacet
  facet normal 0.281085 0.678598 0.678598
    outer loop
      vertex 5.65694e-016 9.2388 3.82683
      vertex 2.34318e-016 3.82683 9.2388
      vertex 2.70598 2.70598 9.2388
    endloop
  endfacet
  facet normal -0.281085 0.678598 0.678598
    outer loop
      vertex 5.65694e-016 9.2388 3.82683
      vertex -6.53281 6.53281 3.82683
      vertex 2.34318e-016 3.82683 9.2388
    endloop
  endfacet
  facet normal -0.281085 0.678598 0.678598
    outer loop
      vertex -6.53281 6.53281 3.82683
      vertex -2.70598 2.70598 9.2388
      vertex 2.34318e-016 3.82683 9.2388
    endloop
  endfacet
  facet normal -0.678598 0.281085 0.678598
    outer loop
      vertex -6.53281 6.53281 3.82683
      vertex -9.2388 1.13139e-015 3.82683
      vertex -2.70598 2.70598 9.2388
    endloop
  endfacet
  facet normal -0.678598 0.281085 0.678598
    outer loop
      vertex -9.2388 1.13139e-015 3.82683
      vertex -3.82683 4.68637e-016 9.2388
      vertex -2.70598 2.70598 9.2388
    endloop
  endfacet
  facet normal -0.678598 -0.281085 0.678598
    outer loop
      vertex -9.2388 1.13139e-015 3.82683
      vertex -6.53281 -6.53281 3.82683
      vertex -3.82683 4.68637e-016 9.2388
    endloop
  endfacet
  facet normal -0.678598 -0.281085 0.678598
    outer loop
      vertex -6.53281 -6.53281 3.82683
      vertex -2.70598 -2.70598 9.2388
      vertex -3.82683 4.68637e-016 9.2388
    endloop
  endfacet
  facet normal -0.281085 -0.678598 0.678598
    outer loop
      vertex -6.53281 -6.53281 3.82683
      vertex -1.69708e-015 -9.2388 3.82683
      vertex -2.70598 -2.70598 9.2388
    endloop
  endfacet
  facet normal -0.281085 -0.678598 0.678598
    outer loop
      vertex -1.69708e-015 -9.2388 3.82683
      vertex -7.02955e-016 -3.82683 9.2388
      vertex -2.70598 -2.70598 9.2388
    endloop
  endfacet
  facet normal 0.281085 -0.678598 0.678598
    outer loop
      vertex -1.69708e-015 -9.2388 3.82683
      vertex 6.53281 -6.53281 3.82683
      vertex -7.02955e-016 -3.82683 9.2388
    endloop
  endfacet
  facet normal 0.281085 -0.678598 0.678598
    outer loop
      vertex 6.53281 -6.53281 3.82683
      vertex 2.70598 -2.70598 9.2388
      vertex -7.02955e-016 -3.82683 9.2388
    endloop
  endfacet
  facet normal 0.678598 -0.281085 0.678598
    outer loop
      vertex 6.53281 -6.53281 3.82683
      vertex 9.2388 0 3.82683
      vertex 2.70598 -2.70598 9.2388
    endloop
  endfacet
  facet normal 0.678598 -0.281085 0.678598
    outer loop
      vertex 9.2388 0 3.82683
      vertex 3.82683 0 9.2388
      vertex 2.70598 -2.70598 9.2388
    endloop
  endfacet
  facet normal 0.92388 0.382683 -0
    outer loop
      vertex 9.2388 0 -3.82683
      vertex 6.53281 6.53281 -3.82683
      vertex 9.2388 0 3.82683
    endloop
  endfacet
  facet normal 0.92388 0.382683 -0
    outer loop
      vertex 6.53281 6.53281 -3.82683
      vertex 6.53281 6.53281 3.82683
      vertex 9.2388 0 3.82683
    endloop
  endfacet
  facet normal 0.382683 0.92388 -0
    outer loop
      vertex 6.53281 6.53281 -3.82683
      vertex 5.65694e-016 9.2388 -3.82683
      vertex 6.53281 6.53281 3.82683
    endloop
  endfacet
  facet normal 0.382683 0.92388 -0
    outer loop
      vertex 5.65694e-016 9.2388 -3.82683
      vertex 5.65694e-016 9.2388 3.82683
      vertex 6.53281 6.53281 3.82683
    endloop
  endfacet
  facet normal -0.382683 0.92388 0
    outer loop
      vertex 5.65694e-016 9.2388 -3.82683
      vertex -6.53281 6.53281 -3.82683
      vertex 5.65694e-016 9.2388 3.82683
    endloop
  endfacet
  facet normal -0.382683 0.92388 0
    outer loop
      vertex -6.53281 6.53281 -3.82683
      vertex -6.53281 6.53281 3.82683
      vertex 5.65694e-016 9.2388 3.82683
    endloop
  endfacet
  facet normal -0.92388 0.382683 0
    outer loop
      vertex -6.53281 6.53281 -3.82683
      vertex -9.2388 1.13139e-015 -3.82683
      vertex -6.53281 6.53281 3.82683
    endloop
  endfacet
  facet normal -0.92388 0.382683 0
    outer loop
      vertex -9.2388 1.13139e-015 -3.82683
      vertex -9.2388 1.13139e-015 3.82683
      vertex -6.53281 6.53281 3.82683
    endloop
  endfacet
  facet normal -0.92388 -0.382683 0
    outer loop
      vertex -9.2388 1.13139e-015 -3.82683
      vertex -6.53281 -6.53281 -3.82683
      vertex -9.2388 1.13139e-015 3.82683
    endloop
  endfacet
  facet normal -0.92388 -0.382683 0
    outer loop
      vertex -6.53281 -6.53281 -3.82683
      vertex -6.53281 -6.53281 3.82683
      vertex -9.2388 1.13139e-015 3.82683
    endloop
  endfacet
  facet normal -0.382683 -0.92388 0
    outer loop
      vertex -6.53281 -6.53281 -3.82683
      vertex -1.69708e-015 -9.2388 -3.82683
      vertex -6.53281 -6.53281 3.82683
    endloop
  endfacet
  facet normal -0.382683 -0.92388 0
    outer loop
      vertex -1.69708e-015 -9.2388 -3.82683
      vertex -1.69708e-015 -9.2388 3.82683
      vertex -6.53281 -6.53281 3.82683
    endloop
  endfacet
  facet normal 0.382683 -0.92388 0
    outer loop
      vertex -1.69708e-015 -9.2388 -3.82683
      vertex 6.53281 -6.53281 -3.82683
      vertex -1.69708e-015 -9.2388 3.82683
    endloop
  endfacet
  facet normal 0.382683 -0.92388 0
    outer loop
      vertex 6.53281 -6.53281 -3.82683
      vertex 6.53281 -6.53281 3.82683
      vertex -1.69708e-015 -9.2388 3.82683
    endloop
  endfacet
  facet normal 0.92388 -0.382683 0
    outer loop
      vertex 6.53281 -6.53281 -3.82683
      vertex 9.2388 0 -3.82683
      vertex 6.53281 -6.53281 3.82683
    endloop
  endfacet
  facet normal 0.92388 -0.382683 0
    outer loop
      vertex 9.2388 0 -3.82683
      vertex 9.2388 0 3.82683
      vertex 6.53281 -6.53281 3.82683
    endloop
  endfacet
  facet normal 0.678598 0.281085 -0.678598
    outer loop
      vertex 3.82683 0 -9.2388
      vertex 2.70598 2.70598 -9.2388
      vertex 9.2388 0 -3.82683
    endloop
  endfacet
  facet normal 0.678598 0.281085 -0.678598
    outer loop
      vertex 2.70598 2.70598 -9.2388
      vertex 6.53281 6.53281 -3.82683
      vertex 9.2388 0 -3.82683
    endloop
  endfacet
  facet normal 0.281085 0.678598 -0.678598
    outer loop
      vertex 2.70598 2.70598 -9.2388
      vertex 2.34318e-016 3.82683 -9.2388
      vertex 6.53281 6.53281 -3.82683
    endloop
  endfacet
  facet normal 0.281085 0.678598 -0.678598
    outer loop
      vertex 2.34318e-016 3.82683 -9.2388
      vertex 5.65694e-016 9.2388 -3.82683
      vertex 6.53281 6.53281 -3.82683
    endloop
  endfacet
  facet normal -0.281085 0.678598 -0.678598
    outer loop
      vertex 2.34318e-016 3.82683 -9.2388
      vertex -2.70598 2.70598 -9.2388
      vertex 5.65694e-016 9.2388 -3.82683
    endloop
  endfacet
  facet normal -0.281085 0.678598 -0.678598
    outer loop
      vertex -2.70598 2.70598 -9.2388
      vertex -6.53281 6.53281 -3.82683
      vertex 5.65694e-016 9.2388 -3.82683
    endloop
  endfacet
  facet normal -0.678598 0.281085 -0.678598
    outer loop
      vertex -2.70598 2.70598 -9.2388
      vertex -3.82683 4.68637e-016 -9.2388
      vertex -6.53281 6.53281 -3.82683
    endloop
  endfacet
  facet normal -0.678598 0.281085 -0.678598
    outer loop
      vertex -3.82683 4.68637e-016 -9.2388
      vertex -9.2388 1.13139e-015 -3.82683
      vertex -6.53281 6.53281 -3.82683
    endloop
  endfacet
  facet normal -0.678598 -0.281085 -0.678598
    outer loop
      vertex -3.82683 4.68637e-016 -9.2388
      vertex -2.70598 -2.70598 -9.2388
      vertex -9.2388 1.13139e-015 -3.82683
    endloop
  endfacet
  facet normal -0.678598 -0.281085 -0.678598
    outer loop
      vertex -2.70598 -2.70598 -9.2388
      vertex -6.53281 -6.53281 -3.82683
      vertex -9.2388 1.13139e-015 -3.82683
    endloop
  endfacet
  facet normal -0.281085 -0.678598 -0.678598
    outer loop
      vertex -2.70598 -2.70598 -9.2388
      vertex -7.02955e-016 -3.82683 -9.2388
      vertex -6.53281 -6.53281 -3.82683
    endloop
  endfacet
  facet normal -0.281085 -0.678598 -0.678598
    outer loop
      vertex -7.02955e-016 -3.82683 -9.2388
      vertex -1.69708e-015 -9.2388 -3.82683
      vertex -6.53281 -6.53281 -3.82683
    endloop
  endfacet
  facet normal 0.281085 -0.678598 -0.678598
    outer loop
      vertex -7.02955e-016 -3.82683 -9.2388
      vertex 2.70598 -2.70598 -9.2388
      vertex -1.69708e-015 -9.2388 -3.82683
    endloop
  endfacet
  facet normal 0.281085 -0.678598 -0.678598
    outer loop
      vertex 2.70598 -2.70598 -9.2388
      vertex 6.53281 -6.53281 -3.82683
      vertex -1.69708e-015 -9.2388 -3.82683
    endloop
  endfacet
  facet normal 0.678598 -0.281085 -0.678598
    outer loop
      vertex 2.70598 -2.70598 -9.2388
      vertex 3.82683 0 -9.2388
      vertex 6.53281 -6.53281 -3.82683
    endloop
  endfacet
  facet normal 0.678598 -0.281085 -0.678598
    outer loop
      vertex 3.82683 0 -9.2388
      vertex 9.2388 0 -3.82683
      vertex 6.53281 -6.53281 -3.82683
    endloop
  endfacet
  facet normal 0 0 -1
    outer loop
      vertex 2.70598 -2.70598 -9.2388
      vertex 2.70598 2.70598 -9.2388
      vertex 3.82683 0 -9.2388
    endloop
  endfacet
  facet normal 0 0 -1
    outer loop
      vertex 2.70598 -2.70598 -9.2388
      vertex 2.34318e-016 3.82683 -9.2388
      vertex 2.70598 2.70598 -9.2388
    endloop
  endfacet
  facet normal 0 0 -1
    outer loop
      vertex -7.02955e-016 -3.82683 -9.2388
      vertex 2.34318e-016 3.82683 -9.2388
      vertex 2.70598 -2.70598 -9.2388
    endloop
  endfacet
  facet normal 0 0 -1
    outer loop
      vertex -2.70598 -2.70598 -9.2388
      vertex 2.34318e-016 3.82683 -9.2388
      vertex -7.02955e-016 -3.82683 -9.2388
    endloop
  endfacet
  facet normal 0 0 -1
    outer loop
      vertex -2.70598 -2.70598 -9.2388
      vertex -2.70598 2.70598 -9.2388
      vertex 2.34318e-016 3.82683 -9.2388
    endloop
  endfacet
  facet normal 0 -0 -1
    outer loop
      vertex -2.70598 2.70598 -9.2388
      vertex -2.70598 -2.70598 -9.2388
      vertex -3.82683 4.68637e-016 -9.2388
    endloop
  endfacet
endsolid OpenSCAD_Model
